<?xml version="1.0" encoding="UTF-8" standalone="no"?>
<!-- Created with Inkscape (http://www.inkscape.org/) -->

<svg
   xmlns:dc="http://purl.org/dc/elements/1.1/"
   xmlns:cc="http://creativecommons.org/ns#"
   xmlns:rdf="http://www.w3.org/1999/02/22-rdf-syntax-ns#"
   xmlns:svg="http://www.w3.org/2000/svg"
   xmlns="http://www.w3.org/2000/svg"
   xmlns:xlink="http://www.w3.org/1999/xlink"
   xmlns:sodipodi="http://sodipodi.sourceforge.net/DTD/sodipodi-0.dtd"
   xmlns:inkscape="http://www.inkscape.org/namespaces/inkscape"
   width="92.0625"
   height="91.0625"
   id="svg3356"
   version="1.1"
   inkscape:version="0.48.2 r9819"
   sodipodi:docname="islamic-datetime.svg">
  <defs
     id="defs3358">
    <linearGradient
       gradientTransform="translate(308.92062,368.84151)"
       inkscape:collect="always"
       xlink:href="#linearGradient4531"
       id="linearGradient4537"
       x1="65.714287"
       y1="170.21933"
       x2="66.428574"
       y2="208.07646"
       gradientUnits="userSpaceOnUse" />
    <linearGradient
       inkscape:collect="always"
       id="linearGradient4531">
      <stop
         style="stop-color:#112b00;stop-opacity:1;"
         offset="0"
         id="stop4533" />
      <stop
         style="stop-color:#112b00;stop-opacity:0;"
         offset="1"
         id="stop4535" />
    </linearGradient>
    <linearGradient
       inkscape:collect="always"
       xlink:href="#linearGradient4384-6"
       id="linearGradient4523"
       gradientUnits="userSpaceOnUse"
       gradientTransform="translate(327,486.80589)"
       spreadMethod="reflect"
       x1="48"
       y1="82"
       x2="112.12357"
       y2="82.454597" />
    <linearGradient
       id="linearGradient4384-6">
      <stop
         id="stop4386-3"
         style="stop-color:#ffffff;stop-opacity:1"
         offset="0" />
      <stop
         id="stop4388-9"
         style="stop-color:#ffffff;stop-opacity:0"
         offset="1" />
    </linearGradient>
    <linearGradient
       inkscape:collect="always"
       xlink:href="#linearGradient4384-6"
       id="linearGradient4521"
       gradientUnits="userSpaceOnUse"
       gradientTransform="matrix(1,0,0,-1,327,575.52289)"
       x1="48"
       y1="88"
       x2="48"
       y2="-40" />
    <linearGradient
       id="linearGradient3287">
      <stop
         id="stop3289"
         style="stop-color:#ffffff;stop-opacity:1"
         offset="0" />
      <stop
         id="stop3291"
         style="stop-color:#ffffff;stop-opacity:0"
         offset="1" />
    </linearGradient>
    <linearGradient
       inkscape:collect="always"
       xlink:href="#linearGradient3737-5"
       id="linearGradient4519"
       gradientUnits="userSpaceOnUse"
       gradientTransform="translate(327,483.52289)"
       x1="56"
       y1="48"
       x2="56"
       y2="16" />
    <linearGradient
       id="linearGradient3737-5">
      <stop
         id="stop3739-6"
         style="stop-color:#ffffff;stop-opacity:1"
         offset="0" />
      <stop
         id="stop3741-1"
         style="stop-color:#ffffff;stop-opacity:0"
         offset="1" />
    </linearGradient>
    <linearGradient
       inkscape:collect="always"
       xlink:href="#linearGradient4525"
       id="linearGradient4517"
       gradientUnits="userSpaceOnUse"
       gradientTransform="translate(327,483.52289)"
       x1="48"
       y1="90"
       x2="48"
       y2="6.4166145" />
    <linearGradient
       id="linearGradient4525">
      <stop
         id="stop4527"
         style="stop-color:#44aa00;stop-opacity:1"
         offset="0" />
      <stop
         id="stop4529"
         style="stop-color:#b3ff80;stop-opacity:1"
         offset="1" />
    </linearGradient>
    <linearGradient
       inkscape:collect="always"
       xlink:href="#ButtonShadow-0-9"
       id="linearGradient4507"
       gradientUnits="userSpaceOnUse"
       gradientTransform="matrix(1.0238095,0,0,1.0119048,-1.1428571,-98.071429)"
       x1="32.251034"
       y1="6.1317081"
       x2="32.251034"
       y2="90.238609" />
    <linearGradient
       x1="45.447727"
       y1="92.539597"
       x2="45.447727"
       y2="7.0165396"
       id="ButtonShadow-0-9"
       gradientUnits="userSpaceOnUse"
       gradientTransform="matrix(1.0058652,0,0,0.994169,100,0)">
      <stop
         id="stop3750-8-7"
         style="stop-color:#000000;stop-opacity:1"
         offset="0" />
      <stop
         id="stop3752-5-7"
         style="stop-color:#000000;stop-opacity:0.58823532"
         offset="1" />
    </linearGradient>
    <linearGradient
       inkscape:collect="always"
       xlink:href="#ButtonShadow-0-9"
       id="linearGradient4509"
       gradientUnits="userSpaceOnUse"
       gradientTransform="matrix(1.0238095,0,0,1.0119048,-1.1428571,-98.071429)"
       x1="32.251034"
       y1="6.1317081"
       x2="32.251034"
       y2="90.238609" />
    <linearGradient
       x1="45.447727"
       y1="92.539597"
       x2="45.447727"
       y2="7.0165396"
       id="linearGradient3306"
       gradientUnits="userSpaceOnUse"
       gradientTransform="matrix(1.0058652,0,0,0.994169,100,0)">
      <stop
         id="stop3308"
         style="stop-color:#000000;stop-opacity:1"
         offset="0" />
      <stop
         id="stop3310"
         style="stop-color:#000000;stop-opacity:0.58823532"
         offset="1" />
    </linearGradient>
    <linearGradient
       inkscape:collect="always"
       xlink:href="#ButtonShadow-0-9"
       id="linearGradient4511"
       gradientUnits="userSpaceOnUse"
       gradientTransform="matrix(1.0238095,0,0,1.0119048,-1.1428571,-98.071429)"
       x1="32.251034"
       y1="6.1317081"
       x2="32.251034"
       y2="90.238609" />
    <linearGradient
       x1="45.447727"
       y1="92.539597"
       x2="45.447727"
       y2="7.0165396"
       id="linearGradient3313"
       gradientUnits="userSpaceOnUse"
       gradientTransform="matrix(1.0058652,0,0,0.994169,100,0)">
      <stop
         id="stop3315"
         style="stop-color:#000000;stop-opacity:1"
         offset="0" />
      <stop
         id="stop3317"
         style="stop-color:#000000;stop-opacity:0.58823532"
         offset="1" />
    </linearGradient>
    <linearGradient
       inkscape:collect="always"
       xlink:href="#ButtonShadow-0-9"
       id="linearGradient4513"
       gradientUnits="userSpaceOnUse"
       gradientTransform="matrix(1.0238095,0,0,1.0119048,-1.1428571,-98.071429)"
       x1="32.251034"
       y1="6.1317081"
       x2="32.251034"
       y2="90.238609" />
    <linearGradient
       x1="45.447727"
       y1="92.539597"
       x2="45.447727"
       y2="7.0165396"
       id="linearGradient3320"
       gradientUnits="userSpaceOnUse"
       gradientTransform="matrix(1.0058652,0,0,0.994169,100,0)">
      <stop
         id="stop3322"
         style="stop-color:#000000;stop-opacity:1"
         offset="0" />
      <stop
         id="stop3324"
         style="stop-color:#000000;stop-opacity:0.58823532"
         offset="1" />
    </linearGradient>
    <linearGradient
       inkscape:collect="always"
       xlink:href="#ButtonShadow-0-9"
       id="linearGradient4515"
       gradientUnits="userSpaceOnUse"
       gradientTransform="translate(0,-97)"
       x1="32.251034"
       y1="6.1317081"
       x2="32.251034"
       y2="90.238609" />
    <linearGradient
       x1="45.447727"
       y1="92.539597"
       x2="45.447727"
       y2="7.0165396"
       id="linearGradient3327"
       gradientUnits="userSpaceOnUse"
       gradientTransform="matrix(1.0058652,0,0,0.994169,100,0)">
      <stop
         id="stop3329"
         style="stop-color:#000000;stop-opacity:1"
         offset="0" />
      <stop
         id="stop3331"
         style="stop-color:#000000;stop-opacity:0.58823532"
         offset="1" />
    </linearGradient>
    <linearGradient
       inkscape:collect="always"
       xlink:href="#linearGradient3737-0"
       id="linearGradient4505"
       gradientUnits="userSpaceOnUse"
       x1="48"
       y1="20.220806"
       x2="48"
       y2="138.66119" />
    <linearGradient
       id="linearGradient3737-0">
      <stop
         id="stop3739-8"
         style="stop-color:#ffffff;stop-opacity:1"
         offset="0" />
      <stop
         id="stop3741-8"
         style="stop-color:#ffffff;stop-opacity:0"
         offset="1" />
    </linearGradient>
    <clipPath
       id="clipPath4355-5">
      <rect
         width="84"
         height="80"
         rx="6"
         ry="6"
         x="6"
         y="6"
         id="rect4357-0"
         style="fill:#ffffff;fill-opacity:1;fill-rule:nonzero;stroke:none" />
    </clipPath>
    <filter
       x="-0.192"
       y="-0.192"
       width="1.3839999"
       height="1.3839999"
       color-interpolation-filters="sRGB"
       id="filter3794-9">
      <feGaussianBlur
         id="feGaussianBlur3796-6"
         stdDeviation="5.28" />
    </filter>
    <linearGradient
       y2="138.66119"
       x2="48"
       y1="20.220806"
       x1="48"
       gradientUnits="userSpaceOnUse"
       id="linearGradient3354"
       xlink:href="#linearGradient3737-0"
       inkscape:collect="always" />
  </defs>
  <sodipodi:namedview
     id="base"
     pagecolor="#ffffff"
     bordercolor="#666666"
     borderopacity="1.0"
     inkscape:pageopacity="0.0"
     inkscape:pageshadow="2"
     inkscape:zoom="7.9195959"
     inkscape:cx="23.934163"
     inkscape:cy="25.328196"
     inkscape:document-units="px"
     inkscape:current-layer="layer1"
     showgrid="false"
     fit-margin-top="0"
     fit-margin-left="0"
     fit-margin-right="0"
     fit-margin-bottom="0"
     inkscape:window-width="1280"
     inkscape:window-height="775"
     inkscape:window-x="0"
     inkscape:window-y="0"
     inkscape:window-maximized="1" />
  <metadata
     id="metadata3361">
    <rdf:RDF>
      <cc:Work
         rdf:about="">
        <dc:format>image/svg+xml</dc:format>
        <dc:type
           rdf:resource="http://purl.org/dc/dcmitype/StillImage" />
        <dc:title></dc:title>
        <dc:creator>
          <cc:Agent>
            <dc:title>Muslih Al Aqqad</dc:title>
          </cc:Agent>
        </dc:creator>
        <cc:license
           rdf:resource="http://creativecommons.org/licenses/by-sa/3.0/" />
      </cc:Work>
      <cc:License
         rdf:about="http://creativecommons.org/licenses/by-sa/3.0/">
        <cc:permits
           rdf:resource="http://creativecommons.org/ns#Reproduction" />
        <cc:permits
           rdf:resource="http://creativecommons.org/ns#Distribution" />
        <cc:requires
           rdf:resource="http://creativecommons.org/ns#Notice" />
        <cc:requires
           rdf:resource="http://creativecommons.org/ns#Attribution" />
        <cc:permits
           rdf:resource="http://creativecommons.org/ns#DerivativeWorks" />
        <cc:requires
           rdf:resource="http://creativecommons.org/ns#ShareAlike" />
      </cc:License>
    </rdf:RDF>
  </metadata>
  <g
     inkscape:label="Layer 1"
     inkscape:groupmode="layer"
     id="layer1"
     transform="translate(-328.96875,-486.83093)">
    <g
       transform="translate(327,483.52289)"
       id="g4479"
       style="display:inline">
      <rect
         width="66"
         height="62"
         rx="12"
         ry="12"
         x="15"
         y="15"
         clip-path="url(#clipPath4355-5)"
         id="rect4481"
         style="opacity:0.1;fill:url(#linearGradient3354);fill-opacity:1;fill-rule:nonzero;stroke:#ffffff;stroke-width:0.5;stroke-linecap:round;stroke-linejoin:miter;stroke-miterlimit:4;stroke-opacity:1;stroke-dasharray:none;stroke-dashoffset:0;filter:url(#filter3794-9)" />
    </g>
    <g
       transform="translate(327,482.86218)"
       id="g4483"
       style="display:inline">
      <path
         inkscape:connector-curvature="0"
         d="m 12,-95.03125 c -5.5110903,0 -10.03125,4.52016 -10.03125,10.03125 l 0,71 c 0,5.5110902 4.5201598,10.03125 10.03125,10.03125 l 72,0 c 5.51109,0 10.03125,-4.5201597 10.03125,-10.03125 l 0,-71 c 0,-5.51109 -4.52016,-10.03125 -10.03125,-10.03125 l -72,0 z"
         transform="scale(1,-1)"
         id="path4485"
         style="opacity:0.07999998;fill:url(#linearGradient4507);fill-opacity:1;fill-rule:nonzero;stroke:none;display:inline" />
      <path
         inkscape:connector-curvature="0"
         d="m 12,-94.03125 c -4.971633,0 -9.03125,4.059617 -9.03125,9.03125 l 0,71 c 0,4.9716329 4.0596171,9.03125 9.03125,9.03125 l 72,0 c 4.971633,0 9.03125,-4.059617 9.03125,-9.03125 l 0,-71 c 0,-4.971633 -4.059617,-9.03125 -9.03125,-9.03125 l -72,0 z"
         transform="scale(1,-1)"
         id="path4487"
         style="opacity:0.1;fill:url(#linearGradient4509);fill-opacity:1;fill-rule:nonzero;stroke:none;display:inline" />
      <path
         inkscape:connector-curvature="0"
         d="m 12,-93 c -4.4091333,0 -8,3.590867 -8,8 l 0,71 c 0,4.4091333 3.5908667,8 8,8 l 72,0 c 4.409133,0 8,-3.5908667 8,-8 l 0,-71 c 0,-4.409133 -3.590867,-8 -8,-8 l -72,0 z"
         transform="scale(1,-1)"
         id="path4489"
         style="opacity:0.2;fill:url(#linearGradient4511);fill-opacity:1;fill-rule:nonzero;stroke:none;display:inline" />
      <rect
         width="86"
         height="85"
         rx="7"
         ry="7"
         x="5"
         y="-92"
         transform="scale(1,-1)"
         id="rect4491"
         style="opacity:0.3;fill:url(#linearGradient4513);fill-opacity:1;fill-rule:nonzero;stroke:none;display:inline" />
      <rect
         width="84"
         height="84"
         rx="6"
         ry="6"
         x="6"
         y="-91"
         transform="scale(1,-1)"
         id="rect4493"
         style="opacity:0.45;fill:url(#linearGradient4515);fill-opacity:1;fill-rule:nonzero;stroke:none;display:inline" />
    </g>
    <rect
       style="fill:url(#linearGradient4517);fill-opacity:1;fill-rule:nonzero;stroke:none"
       id="rect4495"
       y="489.52289"
       x="333"
       ry="6"
       rx="6"
       height="84"
       width="84" />
    <path
       style="opacity:0.4;color:#000000;fill:url(#linearGradient4519);fill-opacity:1;fill-rule:nonzero;stroke:none;stroke-width:1;marker:none;visibility:visible;display:inline;overflow:visible;enable-background:accumulate"
       id="path4497"
       inkscape:connector-curvature="0"
       d="m 339,489.52289 c -3.324,0 -6,2.676 -6,6 l 0,30.0625 c 12.21249,4.66849 26.58513,7.375 42,7.375 15.41487,0 29.78751,-2.70651 42,-7.375 l 0,-30.0625 c 0,-3.324 -2.676,-6 -6,-6 l -72,0 z" />
    <path
       style="opacity:0.5;fill:url(#linearGradient4521);fill-opacity:1;fill-rule:nonzero;stroke:none"
       id="path4499"
       inkscape:connector-curvature="0"
       d="m 339,573.52289 c -3.324,0 -6,-2.676 -6,-6 l 0,-72 c 0,-3.324 2.676,-6 6,-6 l 72,0 c 3.324,0 6,2.676 6,6 l 0,72 c 0,3.324 -2.676,6 -6,6 z m 0,-0.96875 72,0 c 2.80489,0 5.03125,-2.22636 5.03125,-5.03125 l 0,-72 c 0,-2.80489 -2.22636,-5.03125 -5.03125,-5.03125 l -72,0 c -2.80489,0 -5.03125,2.22636 -5.03125,5.03125 l 0,72 c 0,2.80489 2.22636,5.03125 5.03125,5.03125 z"
       sodipodi:nodetypes="ssssssssssssssssss" />
    <path
       style="opacity:0.1;fill:url(#linearGradient4523);fill-opacity:1;fill-rule:nonzero;stroke:none"
       id="path4501"
       inkscape:connector-curvature="0"
       d="m 333,564.80589 0,2 c 0,3.324 2.676,6 6,6 l 72,0 c 3.324,0 6,-2.676 6,-6 l 0,-2 c 0,3.324 -2.676,6 -6,6 l -72,0 c -3.324,0 -6,-2.676 -6,-6 z" />
    <path
       inkscape:connector-curvature="0"
       id="path4503"
       d="m 364.58077,493.45479 c -0.18573,0 -0.33291,0.15698 -0.33291,0.34271 0,0.13138 0.0762,0.2384 0.18604,0.29375 l 0,0.63645 c -0.10846,0.023 -0.18604,0.0638 -0.18604,0.1175 0,0.0537 0.0776,0.0945 0.18604,0.1175 l 0,1.40021 c -0.10846,0.023 -0.18604,0.0638 -0.18604,0.1175 0,0.0537 0.0776,0.0945 0.18604,0.1175 l 0,1.86041 c -1.74043,1.035 -2.12231,1.36121 -2.2227,5.08185 l -1.96812,0 0,0.0587 -0.56792,0 0,0.30355 0.27417,0.8127 0.29375,0 0,2.47728 c -0.16507,0.0658 -0.28396,0.22217 -0.28396,0.41125 l 0,0.10771 c 0,0.18909 0.11889,0.34545 0.28396,0.41125 l 0,1.00854 c -0.16507,0.0658 -0.28396,0.22216 -0.28396,0.41125 l 0,0.1077 c 0,0.18927 0.11863,0.35537 0.28396,0.42105 l 0,0.99874 c -0.16507,0.0658 -0.28396,0.22217 -0.28396,0.41125 l 0,0.10771 c 0,0.18927 0.11863,0.35536 0.28396,0.42104 l 0,0.99875 c -0.16507,0.0658 -0.28396,0.22216 -0.28396,0.41124 l 0,0.1175 c 0,0.18927 0.11863,0.34557 0.28396,0.41125 l 0,1.56666 -2.12479,0 0,0.41125 0.3525,1.09667 0.43083,0 0,13.29704 -1.81145,0 0,0.83228 0.41125,2.24229 1.4002,0 0,24.40075 -2.11499,3.7502 0.15667,7.11852 36.71863,0.32312 0,-7.11852 -4.11249,-6.49185 c 1.63532,-26.00686 -10.81475,-22.57527 -14.56016,-33.38948 -1.22261,3.02518 -3.10813,4.78602 -5.12103,6.49186 l 0,-11.45621 0.3525,0 0.42104,-1.09667 0,-0.41125 -2.12478,0 0,-1.56666 c 0.16532,-0.0657 0.28396,-0.22198 0.28396,-0.41125 l 0,-0.1175 c 0,-0.18908 -0.11889,-0.34545 -0.28396,-0.41124 l 0,-0.99875 c 0.16532,-0.0657 0.28396,-0.23177 0.28396,-0.42104 l 0,-0.10771 c 0,-0.18908 -0.11889,-0.34545 -0.28396,-0.41125 l 0,-0.99874 c 0.16532,-0.0657 0.28396,-0.23178 0.28396,-0.42105 l 0,-0.1077 c 0,-0.18909 -0.11889,-0.34545 -0.28396,-0.41125 l 0,-1.00854 c 0.16507,-0.0658 0.28396,-0.22216 0.28396,-0.41125 l 0,-0.10771 c 0,-0.18908 -0.11889,-0.34545 -0.28396,-0.41125 l 0,-2.47728 0.24479,0 0.32312,-0.8127 0,-0.30355 -0.56791,0 0,-0.0587 -1.6352,0 c 0.10925,-3.28756 -0.66664,-4.26249 -2.16396,-4.96435 l 0,-1.96812 c 0.11529,-0.022 0.19584,-0.0716 0.19584,-0.12729 0,-0.0557 -0.0805,-0.10534 -0.19584,-0.1273 l 0,-1.38062 c 0.11529,-0.0219 0.19584,-0.0716 0.19584,-0.12729 0,-0.0557 -0.0805,-0.10533 -0.19584,-0.12729 l 0,-0.62666 c 0.11393,-0.0539 0.19584,-0.15937 0.19584,-0.29375 0,-0.18573 -0.14719,-0.34271 -0.33292,-0.34271 z"
       style="fill:url(#linearGradient4537);fill-opacity:1;stroke:none" />
  </g>
</svg>
